<?xml version="1.0" standalone="no"?>
<!DOCTYPE svg PUBLIC "-//W3C//DTD SVG 20010904//EN"
 "http://www.w3.org/TR/2001/REC-SVG-20010904/DTD/svg10.dtd">
<svg version="1.0" xmlns="http://www.w3.org/2000/svg"
 width="500.000000pt" height="500.000000pt" viewBox="0 0 500.000000 500.000000"
 preserveAspectRatio="xMidYMid meet">
<metadata>
Created by potrace 1.14, written by Peter Selinger 2001-2017
</metadata>
<g transform="translate(0.000000,500.000000) scale(0.100000,-0.100000)"
fill="#000000" stroke="none">
<path d="M1407 4949 c-302 -40 -579 -163 -797 -353 -193 -170 -342 -393 -423
-637 -77 -229 -72 -136 -72 -1454 l0 -1180 23 -109 c66 -307 204 -553 436
-773 193 -184 387 -291 647 -357 181 -46 246 -48 1344 -44 949 3 1037 5 1125
22 460 89 863 400 1057 814 53 113 95 238 120 352 17 79 18 163 18 1270 l0
1185 -23 102 c-33 148 -56 213 -122 350 -74 151 -175 287 -309 416 -204 195
-424 312 -705 374 l-121 27 -1065 2 c-586 1 -1096 -2 -1133 -7z m1318 -897
c370 -85 608 -292 721 -629 23 -68 27 -100 31 -244 6 -189 -7 -283 -58 -405
-112 -270 -333 -458 -631 -539 -106 -29 -350 -47 -498 -38 -143 9 -128 66
-132 -515 l-3 -497 -29 -62 c-33 -72 -94 -134 -164 -165 -67 -30 -188 -30
-256 1 -95 42 -163 115 -186 201 -6 21 -11 571 -12 1360 l-3 1325 26 55 c26
55 70 107 117 138 57 37 122 41 562 38 386 -3 433 -6 515 -24z"/>
<path d="M2167 3483 c-4 -3 -7 -160 -7 -349 0 -302 2 -343 16 -348 31 -12 338
-6 395 8 116 27 212 110 244 211 23 76 17 230 -12 296 -37 83 -120 147 -228
175 -52 14 -396 20 -408 7z"/>
</g>
</svg>
